HIERARCHY
ROOT Hips
{
	OFFSET 0.00000 0.00000 0.00000
	CHANNELS 6 Xposition Yposition Zposition Zrotation Yrotation Xrotation 
	JOINT LHipJoint
	{
		OFFSET 0 0 0
		CHANNELS 3 Zrotation Yrotation Xrotation
		JOINT LeftHip
		{
			OFFSET 2.36090 -1.39315 1.24752
			CHANNELS 3 Zrotation Yrotation Xrotation
			JOINT LeftKnee
			{
				OFFSET 2.06810 -5.68207 0.00000
				CHANNELS 3 Zrotation Yrotation Xrotation
				JOINT LeftAnkle
				{
					OFFSET 2.46631 -6.77613 0.00000
					CHANNELS 3 Zrotation Yrotation Xrotation
					JOINT LeftToe
					{
						OFFSET 0.26031 -0.71520 1.99545
						CHANNELS 3 Zrotation Yrotation Xrotation
						End Site
						{
							OFFSET 0.00000 -0.00000 1.05957
						}
					}
				}
			}
		}
	}
	JOINT RHipJoint
	{
		OFFSET 0 0 0
		CHANNELS 3 Zrotation Yrotation Xrotation
		JOINT RightHip
		{
			OFFSET -2.25243 -1.39315 1.24752
			CHANNELS 3 Zrotation Yrotation Xrotation
			JOINT RightKnee
			{
				OFFSET -2.17343 -5.97145 0.00000
				CHANNELS 3 Zrotation Yrotation Xrotation
				JOINT RightAnkle
				{
					OFFSET -2.52372 -6.93386 0.00000
					CHANNELS 3 Zrotation Yrotation Xrotation
					JOINT RightToe
					{
						OFFSET -0.22538 -0.61923 2.11447
						CHANNELS 3 Zrotation Yrotation Xrotation
						End Site
						{
							OFFSET -0.00000 -0.00000 1.10506
						}
					}
				}
			}
		}
	}
	JOINT lowerback
	{
		OFFSET 0 0 0
		CHANNELS 3 Zrotation Yrotation Xrotation
		JOINT Chest
		{
			OFFSET 0.01594 2.13103 0.08007
			CHANNELS 3 Zrotation Yrotation Xrotation
			JOINT Chest2
			{
				OFFSET 0.01393 2.09723 0.18338
				CHANNELS 3 Zrotation Yrotation Xrotation
				JOINT lowerneck
				{
					OFFSET 0 0 0
					CHANNELS 3 Zrotation Yrotation Xrotation
					JOINT Neck
					{
						OFFSET 0.05351 1.38915 0.32494
						CHANNELS 3 Zrotation Yrotation Xrotation
						JOINT Head
						{
							OFFSET 0.00711 1.45992 -0.21666
							CHANNELS 3 Zrotation Yrotation Xrotation
							End Site
							{
								OFFSET -0.00433 1.47702 -0.11056
							}
						}
					}
				}
				JOINT LeftCollar
				{
					OFFSET 0 0 0
					CHANNELS 3 Zrotation Yrotation Xrotation
					JOINT LeftShoulder
					{
						OFFSET 2.87198 0.92249 0.11132
CHANNELS 3 Zrotation Xrotation Yrotation
						JOINT LeftElbow
						{
OFFSET 0 -5.527310 0.000000
CHANNELS 3 Zrotation Xrotation Yrotation
							JOINT LeftWrist
							{
OFFSET 0 -3.110590 0.000000
CHANNELS 3 Zrotation Xrotation Yrotation
								JOINT lhand
								{
									OFFSET 0 0 0
CHANNELS 3 Zrotation Xrotation Yrotation
									JOINT LFingers
									{
OFFSET 0 -0.419630 0.000000
CHANNELS 3 Zrotation Xrotation Yrotation
										End Site
										{
OFFSET 0 -0.338310 0.000000
										}
									}
								}
								JOINT LThumb
								{
OFFSET 0 0.000000 0.000000
CHANNELS 3 Zrotation Xrotation Yrotation
									End Site
									{
OFFSET 0 -0.343480 0.343480
									}
								}
							}
						}
					}
				}
				JOINT RightCollar
				{
					OFFSET 0 0 0
					CHANNELS 3 Zrotation Yrotation Xrotation
					JOINT RightShoulder
					{
						OFFSET -2.94710 0.68072 0.32187
CHANNELS 3 Zrotation Xrotation Yrotation
						JOINT RightElbow
						{
OFFSET 0 -5.253960 -0.000000
CHANNELS 3 Zrotation Xrotation Yrotation
							JOINT RightWrist
							{
OFFSET 0 -3.105670 0.000000
CHANNELS 3 Zrotation Xrotation Yrotation
								JOINT rhand
								{
									OFFSET 0 0 0
CHANNELS 3 Zrotation Xrotation Yrotation
									JOINT RFingers
									{
OFFSET 0 -0.498680 0.000000
CHANNELS 3 Zrotation Xrotation Yrotation
										End Site
										{
OFFSET 0 -0.402040 0.000000
										}
									}
								}
								JOINT RThumb
								{
OFFSET 0 0.000000 0.000000
CHANNELS 3 Zrotation Xrotation Yrotation
									End Site
									{
OFFSET 0 -0.408180 0.408180
									}
								}
							}
						}
					}
				}
			}
		}
	}
}
MOTION
Frames: 4
Frame Time: 0.008333333333333333
4.818100 15.244700 18.114700 3.090500 36.948700 21.924100 0.000000 0.000000 0.000000 -26.794100 -15.137400 -30.824000 2.317300 9.497900 27.365500 -0.541500 17.878600 -19.813400 0.173900 2.686600 7.407400 0.000000 0.000000 0.000000 11.630400 19.632100 -35.235700 -11.093700 -17.980600 63.085400 -0.713700 -12.896300 -25.347000 -0.012100 0.710000 -1.951100 -6.083500 -5.826900 -13.066100 0.372100 -6.914000 -7.202700 2.829800 -3.254400 0.435600 12.627800 11.936700 -20.688400 -9.204800 14.821200 17.881200 -2.867800 6.678500 10.807100 0.000000 0.000000 0.000000 39.628800 -4.221300 17.893500 24.401200 -35.585700 7.938800 37.166000 -41.656900 -5.388800 0.000000 0.000000 0.000000 -7.125000 0.000000 0.000000 8.842100 36.605400 1.843300 0.000000 0.000000 0.000000 -10.829300 20.084900 -23.626700 -12.873900 -21.102100 -2.407700 -30.639400 -1.015900 25.611600 0.000000 0.000000 0.000000 7.125000 0.000000 -0.000000 -1.055500 59.101000 0.363700
4.791701 15.300970 18.044718 2.628816 34.358547 21.802439 0.000000 0.000000 0.000000 -26.658830 -14.536970 -30.621978 2.112167 9.094501 26.092461 -0.782663 19.636283 -20.332041 0.234823 3.112922 8.593753 0.000000 0.000000 0.000000 12.282150 17.210101 -35.139473 -10.820497 -17.845840 62.196872 -0.642991 -13.675595 -25.578283 -0.002698 0.259358 -0.712714 -5.597077 -5.509244 -13.451416 0.356082 -6.530640 -7.496882 2.590385 -3.065475 0.243369 12.474356 11.569185 -20.743922 -9.198728 14.400248 18.402420 -2.920638 6.471340 10.947325 0.000000 0.000000 0.000000 39.380916 -4.573228 17.031683 24.570418 -35.761632 8.037522 37.311779 -43.253994 -5.736371 0.000000 0.000000 0.000000 -7.125000 0.000000 0.000000 8.994857 37.044693 1.777952 0.000000 0.000000 0.000000 -11.020386 20.032295 -22.399740 -13.478318 -21.983350 -2.630048 -30.417636 -2.720219 25.161469 0.000000 0.000000 0.000000 7.125000 0.000000 0.000000 -0.929281 58.555354 0.308194
4.766890 15.363831 17.980093 2.188227 31.802680 21.721349 0.000000 0.000000 0.000000 -26.531900 -13.824720 -30.396086 1.903460 8.661612 24.742866 -1.018810 21.248375 -20.894556 0.307570 3.564522 9.854762 0.000000 0.000000 0.000000 12.796907 15.044734 -35.175050 -10.532257 -17.698345 61.252760 -0.597928 -14.206813 -25.781226 -0.003832 -0.387995 1.066150 -5.191301 -5.184648 -13.943317 0.405603 -6.124450 -7.653761 2.449974 -2.871459 0.270845 12.148129 11.199349 -20.858172 -9.232489 14.004428 18.666815 -2.956264 6.259866 10.997026 0.000000 0.000000 0.000000 39.003307 -5.176446 16.082550 24.527566 -35.717251 8.012498 37.130534 -44.150803 -5.923528 0.000000 0.000000 0.000000 -7.125000 0.000000 0.000000 8.855231 37.263229 1.702109 0.000000 0.000000 0.000000 -11.352167 19.466448 -21.681325 -13.806053 -22.456704 -2.753637 -30.015653 -3.629733 24.794634 0.000000 0.000000 0.000000 7.125000 0.000000 0.000000 -0.572630 58.058708 0.183119
4.738025 15.411665 17.916148 1.819716 29.237656 21.697429 0.000000 0.000000 0.000000 -26.408360 -13.169124 -30.209167 1.717962 8.251005 23.479908 -1.261500 22.825951 -21.612071 0.401623 4.065351 11.261009 0.000000 0.000000 0.000000 13.198583 12.791796 -35.293460 -10.254679 -17.550281 60.335903 -0.584610 -14.524233 -26.019455 -0.021068 -0.923867 2.539498 -4.830487 -4.839015 -14.362496 0.426542 -5.694350 -7.829973 2.317632 -2.663817 0.242158 11.743803 10.818689 -21.020389 -9.137659 13.584755 18.983360 -2.936096 6.043839 11.056090 0.000000 0.000000 0.000000 38.695986 -5.750122 14.882179 24.457261 -35.644052 7.971450 36.968891 -44.923430 -6.119606 0.000000 0.000000 0.000000 -7.125000 0.000000 0.000000 8.731958 37.493319 1.628352 0.000000 0.000000 0.000000 -11.578216 19.036907 -20.689306 -14.201882 -23.022328 -2.906758 -29.647832 -4.667921 24.513148 0.000000 0.000000 0.000000 7.125000 0.000000 0.000000 -0.235014 57.665480 0.073160
